<svg xmlns="http://www.w3.org/2000/svg" width="500" height="500" viewBox="0 0 500 500" version="1.1">
	<path d="M 63 62.500 L 63 125 47 125 L 31 125 31 281 L 31 437 47 437 L 63 437 63 453 L 63 469 78.500 469 L 94 469 94 484.500 L 94 500 203.500 500 L 313 500 313 453 L 313 406 281.500 406 L 250 406 250 343.500 L 250 281 281.500 281 L 313 281 313 250 L 313 219 344 219 L 375 219 375 172 L 375 125 359.500 125 L 344 125 344 62.500 L 344 0 203.500 0 L 63 0 63 62.500 M 94 78 L 94 125 203.500 125 L 313 125 313 78 L 313 31 203.500 31 L 94 31 94 78 M 125 78.500 L 125 94 156.500 94 L 188 94 188 78.500 L 188 63 156.500 63 L 125 63 125 78.500 M 219 78.500 L 219 94 250 94 L 281 94 281 78.500 L 281 63 250 63 L 219 63 219 78.500 M 63 281 L 63 406 78.500 406 L 94 406 94 297 L 94 188 109.500 188 L 125 188 125 172 L 125 156 94 156 L 63 156 63 281 M 344 281.500 L 344 313 312.500 313 L 281 313 281 344 L 281 375 312.500 375 L 344 375 344 406 L 344 437 375 437 L 406 437 406 406 L 406 375 437.500 375 L 469 375 469 344 L 469 313 437.500 313 L 406 313 406 281.500 L 406 250 375 250 L 344 250 344 281.500 M 94 453 L 94 469 109.500 469 L 125 469 125 453 L 125 437 109.500 437 L 94 437 94 453" stroke="none" fill="#000000" fill-rule="evenodd"/>
</svg>