<svg xmlns="http://www.w3.org/2000/svg" viewBox="0 0 500 500" width="500" height="500" version="1.1" desc="Created with imagetracer.js version 1.2.6"><path fill="rgba(247,247,247,1)" stroke="rgba(247,247,247,1)" stroke-width="1" opacity="0" d="M 0 0 L 1 0 L 63 0 L 63 0 L 63 1 L 63 125 L 63 125 L 63 125 L 32 125 Q 31 125 31 126 L 31 437 L 31 437 L 32 437 L 63 437 L 63 437 L 63 438 L 63 469 L 63 469 L 64 469 L 94 469 L 94 469 L 94 469 L 94 438 L 94 437 L 95 437 L 125 437 L 125 437 L 125 438 L 125 469 L 125 469 L 125 469 L 95 469 L 94 469 L 94 470 L 94 500 L 94 500 L 94 500 L 1 500 L 0 500 L 0 500 L 0 1 L 0 0 Z "/><path fill="rgba(247,247,247,1)" stroke="rgba(247,247,247,1)" stroke-width="1" opacity="0" d="M 344 0 L 345 0 L 500 0 Q 500 0 500 1 L 500 500 L 500 500 L 500 500 L 314 500 L 313 500 L 313 500 L 313 407 L 313 406 L 313 406 L 251 406 Q 250 406 250 406 L 250 282 L 250 281 L 251 281 L 313 281 L 313 281 L 313 281 L 313 220 L 313 219 L 314 219 L 375 219 L 375 219 L 375 219 L 375 126 L 375 125 L 375 125 L 345 125 Q 344 125 344 125 L 344 1 L 344 0 Z M 344 250 L 344 251 L 344 313 L 344 313 L 344 313 L 282 313 L 281 313 L 281 314 L 281 375 L 281 375 L 282 375 L 344 375 L 344 375 L 344 376 L 344 437 L 344 437 L 345 437 L 406 437 L 406 437 L 406 437 L 406 376 L 406 375 L 407 375 L 469 375 L 469 375 L 469 375 L 469 314 L 469 313 L 469 313 L 407 313 L 406 313 L 406 313 L 406 251 L 406 250 L 406 250 L 345 250 L 344 250 Z "/><path fill="rgba(247,247,247,1)" stroke="rgba(247,247,247,1)" stroke-width="1" opacity="0" d="M 94 31 L 95 31 L 313 31 L 313 31 L 313 32 L 313 125 L 313 125 L 313 125 L 95 125 L 94 125 L 94 125 L 94 32 L 94 31 Z M 125 63 L 125 64 L 125 94 L 125 94 L 126 94 L 188 94 L 188 94 L 188 94 L 188 64 L 188 63 L 188 63 L 126 63 L 125 63 Z M 219 63 L 219 64 L 219 94 L 219 94 L 220 94 L 281 94 L 281 94 L 281 94 L 281 64 L 281 63 L 281 63 L 220 63 L 219 63 Z "/><path fill="rgba(247,247,247,1)" stroke="rgba(247,247,247,1)" stroke-width="1" opacity="0" d="M 63 156 L 64 156 L 125 156 L 125 156 L 125 157 L 125 188 L 125 188 L 125 188 L 95 188 Q 94 188 94 189 L 94 406 Q 94 406 94 406 L 64 406 L 63 406 L 63 406 L 63 157 L 63 156 Z "/><path fill="rgba(255,255,255,1)" stroke="rgba(255,255,255,1)" stroke-width="1" opacity="1" d="M 63 0 L 64 0 L 344 0 L 344 0 L 344 1 L 344 125 Q 344 125 345 125 L 375 125 Q 375 125 375 126 L 375 219 L 375 219 L 375 219 L 314 219 L 313 219 L 313 220 L 313 281 L 313 281 L 313 281 L 251 281 L 250 281 L 250 282 L 250 406 L 250 406 L 251 406 L 313 406 L 313 406 L 313 407 L 313 500 L 313 500 L 313 500 L 95 500 Q 94 500 94 500 L 94 470 L 94 469 L 94 469 L 64 469 L 63 469 L 63 469 L 63 438 L 63 437 L 63 437 L 32 437 L 31 437 L 31 437 L 31 126 L 31 125 L 32 125 L 63 125 Q 63 125 63 125 L 63 1 L 63 0 Z M 94 31 L 94 32 L 94 125 L 94 125 L 95 125 L 313 125 L 313 125 L 313 125 L 313 32 L 313 31 L 313 31 L 95 31 L 94 31 Z M 63 156 L 63 157 L 63 406 L 63 406 L 64 406 L 94 406 Q 94 406 94 406 L 94 189 Q 94 188 95 188 L 125 188 L 125 188 L 125 188 L 125 157 L 125 156 L 125 156 L 64 156 L 63 156 Z M 94 437 L 94 438 L 94 469 L 94 469 L 95 469 L 125 469 L 125 469 L 125 469 L 125 438 L 125 437 L 125 437 L 95 437 L 94 437 Z "/><path fill="rgba(255,255,255,1)" stroke="rgba(255,255,255,1)" stroke-width="1" opacity="1" d="M 125 63 L 126 63 L 188 63 L 188 63 L 188 64 L 188 94 L 188 94 L 188 94 L 126 94 L 125 94 L 125 94 L 125 64 L 125 63 Z "/><path fill="rgba(255,255,255,1)" stroke="rgba(255,255,255,1)" stroke-width="1" opacity="1" d="M 219 63 L 220 63 L 281 63 L 281 63 L 281 64 L 281 94 L 281 94 L 281 94 L 220 94 L 219 94 L 219 94 L 219 64 L 219 63 Z "/><path fill="rgba(255,255,255,1)" stroke="rgba(255,255,255,1)" stroke-width="1" opacity="1" d="M 344 250 L 345 250 L 406 250 L 406 250 L 406 251 L 406 313 L 406 313 L 407 313 L 469 313 L 469 313 L 469 314 L 469 375 L 469 375 L 469 375 L 407 375 L 406 375 L 406 376 L 406 437 L 406 437 L 406 437 L 345 437 L 344 437 L 344 437 L 344 376 L 344 375 L 344 375 L 282 375 L 281 375 L 281 375 L 281 314 L 281 313 L 282 313 L 344 313 L 344 313 L 344 313 L 344 251 L 344 250 Z "/></svg>